<svg xmlns="http://www.w3.org/2000/svg" viewBox="0 0 64 64"><g data-name="20-World"><path d="m55 47 2.95 1.97A30.967 30.967 0 0 1 52 55.68V49ZM28 18v4h-2l-1-2 3-2zm30 9 1-1-1-3-5-4v-1h-4l-4 1h-4l-1-2h-5l-2 3h4l1 2-3 1h-2l-5 5v3h1l4-4h2l2 4h3v2h-5l-1-1h-2l-6 5v4l2 2h5v1l1 2v3l1 5h4l3-5v-1l-1-2 3-2v-2h-5v-6h2l1 3h3v-3l-1-2 4 1v4h1l3-3 1 4v4h2v-4h2v-1l-2-2h1l1-3v-2h2v-3l-1-1v-1z" style="fill:#c74841"/><path d="m18 13-4 1-6 5-4 4v2h2v9l2.08 1.38L9 36l3 4v4l2 1 1 6h2l3-4v-2l1-2-3-3-2-3h-4l-1-3H9v-2h3v-2l1-1 1-1v-2l3-1v-1l-1-2h-3l-1 2-2-1 1-2 1-1 1-1 1 1 2-1v-2l-1-1h4v5h2v-2l3-1 3-4v-1l1-1v-2l-10 3z" style="fill:#c74841"/><path d="M1 32a31 31 0 1 1 56.95 16.97L55 47l-3 2v6.68A31 31 0 0 1 1 32Zm23-14 3-4v-1l1-1v-2l-10 3-4 1-6 5-4 4v2h2v9l2.08 1.38L9 36l3 4v4l2 1 1 6h2l3-4v-2l1-2-3-3-2-3h-4l-1-3H9v-2h3v-2l1-1 1-1v-2l3-1v-1l-1-2h-3l-1 2-2-1 1-2 1-1 1-1 1 1 2-1v-2l-1-1h4v5h2v-2Zm1 2 1 2h2v-4Zm19 22h-5v-6h2l1 3h3v-3l-1-2 4 1v4h1l3-3 1 4v4h2v-4h2v-1l-2-2h1l1-3v-2h2v-3l-1-1v-1l1-1-1-3-5-4v-1h-4l-4 1h-4l-1-2h-5l-2 3h4l1 2-3 1h-2l-5 5v3h1l4-4h2l2 4h3v2h-5l-1-1h-2l-6 5v4l2 2h5v1l1 2v3l1 5h4l3-5v-1l-1-2 3-2Z" style="fill:#34c1ad"/><path d="M52 50.59v5.09a30.967 30.967 0 0 0 5.95-6.71l-1.268-.847A30.846 30.846 0 0 1 52 50.59ZM39 54l.606-1.01a31.229 31.229 0 0 1-4.9-.449L35 54ZM4 23v2h2v9l2.08 1.38L9 36l3 4v4l2 1 1 6h2l3-4v-1.322A31.135 31.135 0 0 1 12.87 37H12l-1-3H9v-2h1.658a30.8 30.8 0 0 1-1.385-14.061L8 19Z" style="fill:#ad3a34"/><path d="M9 34h2l1 3h.87a30.79 30.79 0 0 1-2.212-5H9Z" style="fill:#21abab"/><path d="M40 53c-.132 0-.262-.008-.394-.01L39 54h-4l-.292-1.459A30.878 30.878 0 0 1 20 45.678V47l-3 4h-2l-1-6-2-1v-4l-3-4-.92-.62L6 34v-9H4v-2l4-4 1.273-1.061a30.79 30.79 0 0 1 3.045-9.889A31 31 0 1 0 52 55.68v-5.09A30.9 30.9 0 0 1 40 53Zm17.95-4.03a30.873 30.873 0 0 0 1.715-3.007 31.261 31.261 0 0 1-2.983 2.16Z" style="fill:#21abab"/><path d="M42.69 10H37V7c3.65.05 5.14 1.92 5.69 3Z" style="fill:#96e0ff"/><path d="M20.25 7.67 16.75 1h3.5l7.51 6.35c-2.42.13-5.02.27-7.51.41Z" style="fill:#d4d4d4"/><path d="M37 10h5.69a3.235 3.235 0 0 1 .31.75S43 13 39.5 13h-7.38l-11.2 8h-4.67l6.54-8H5.71a3.384 3.384 0 0 1-3.45-2.51L1 4h2.62L8 8.5s5.77-.37 12.25-.74c2.49-.14 5.09-.28 7.51-.41 3.98-.2 7.45-.35 9.11-.35H37Z" style="fill:#e3e3e3"/><path d="M11.6 16h8.19l-.79.966v.67L22.79 13H18l-4 1-2.4 2zm3.285 6-1.635 2H17l-1-2h-1.115z" style="fill:#ad3a34"/><path d="m14 14 4-1H7.515a31.01 31.01 0 0 0-2.07 3H11.6Zm6.92 7h-4.67L19 17.636v-.67L14.885 22H16l1 2h.92l11.2-8h7.38c3.5 0 3.5-2.25 3.5-2.25a3.235 3.235 0 0 0-.31-.75v-.008c-.064 0-.12.008-.186.008H32.12L21 20.943V21Z" style="fill:#21abab"/><path d="M23.07 6a2 2 0 0 1-1.664-.891L18.667 1H16.75l3.5 6.67v.09c2.49-.14 5.09-.28 7.51-.41L26.163 6Z" style="fill:#bfbfbf"/><path d="M39 9h3a6.038 6.038 0 0 0-4-1.922V8a1 1 0 0 0 1 1Z" style="fill:#b3f5ff"/><path d="M20.25 7.667 16.75 1h3.5l7.875 6.667" style="fill:none;stroke:#000;stroke-linejoin:round;stroke-width:2px"/><path d="M36.875 7C31.625 7 8 8.5 8 8.5L3.625 4H1l1.263 6.493A3.387 3.387 0 0 0 5.715 13h17.073l-6.534 8h4.667l11.2-8H39.5c3.5 0 3.5-2.25 3.5-2.25S42.125 7 36.875 7Z" style="fill:none;stroke:#000;stroke-linejoin:round;stroke-width:2px"/><path d="M37 7v3h6m-8 23h5v-2h-3l-2-4h-2l-4 4h-1v-3l5-5h2l3-1-1-2h-4l2-3h5l1 2h4l4-1h4v1l5 4 1 3-1 1v1l1 1v3h-2v2l-1 3h-1l2 2v1h-2v4h-2v-4l-1-4-3 3h-1v-4l-4-1 1 2v3h-3l-1-3h-2v6h5v2l-3 2 1 2v1l-3 5h-4l-1-5v-3l-1-2v-1h-5l-2-2v-4l6-5h2l1 1zm23 16-3-2-3 2v7M17 23v2l-3 1v2l-1 1-1 1v2H9v2h2l1 3h4l2 3 3 3-1 2v2l-3 4h-2l-1-6-2-1v-4l-3-4-3-2v-9H4v-2l4-4 4.8-4" style="fill:none;stroke:#000;stroke-linejoin:round;stroke-width:2px"/><path d="M25 1.794A31 31 0 1 1 5.443 16" style="fill:none;stroke:#000;stroke-linejoin:round;stroke-width:2px"/></g></svg>