<svg xmlns="http://www.w3.org/2000/svg" xml:space="preserve" width="500" height="500" style="enable-background:new 0 0 500 500"><path d="m414 237 7.5 17.5-58 57L320 272 134 454.5l27.5 26 102.5-100 58-58.5 41 32s71.5-73 78-79.5 11 1.5 11 1.5l9.5 9.5 12.5-59-60 10.5z" style="fill-rule:evenodd;clip-rule:evenodd;fill:#ff6371"/><circle cx="255.471" cy="50.525" r="35.757" style="fill-rule:evenodd;clip-rule:evenodd"/><circle cx="255.47" cy="50.527" r="24.255" style="fill-rule:evenodd;clip-rule:evenodd;fill:#fed2a4"/><path d="m123 148 8 21 11 .5 38.5-13 10.5-39zm205-43.5c-13.5 10-52 10.5-63.5-.5S227 84 227 84c-21-5.5-30.5 25-30.5 25l-24 82 76 .5 21-41.5s13.5 2 46.5-5.5 31-14.5 44-32.5-18.5-17.5-32-7.5z" style="fill-rule:evenodd;clip-rule:evenodd;fill:#00ccf2"/><path d="m266.588 210.11-99.921-11.453-55.292 153.634-8.294 38.704s20.142 23.302 31.596 3.949c11.453-19.352 76.224-152.843 76.224-152.843l23.302-1.976-7.898 86.493s26.066 16.982 32.385-2.369l21.723-86.099-13.825-28.04z" style="fill-rule:evenodd;clip-rule:evenodd;fill:#ffbe52"/><path d="m168.602 202.984-81.754-80.285c-5.878-6.205-15.673-6.471-21.879-.593L7.893 180.202c-6.206 5.878-6.471 15.673-.593 21.879l80.828 81.212c5.878 6.205 15.673 6.471 21.879.593l58.002-59.022c6.206-5.879 6.471-15.674.593-21.88z" style="fill-rule:evenodd;clip-rule:evenodd"/><path d="m144.915 205.824-60.088-59.008c-4.32-4.561-11.52-4.756-16.08-.436l-37.934 38.236c-4.561 4.32-4.756 11.52-.436 16.081l59.407 59.688c4.32 4.562 11.52 4.756 16.08.437l38.615-38.919c4.561-4.318 4.756-11.518.436-16.079z" style="fill-rule:evenodd;clip-rule:evenodd;fill:#ff9357"/><circle cx="240.388" cy="404.287" r="9.909" style="fill-rule:evenodd;clip-rule:evenodd"/><circle cx="122.387" cy="324.287" r="9.909" style="fill-rule:evenodd;clip-rule:evenodd"/><path d="M134.176 152.649c7.536-2.917 26.009-10.695 33.301-15.07 7.292-4.375 8.507-5.348 8.507-5.348l18.717-42.538s-15.313 19.689-30.627 28.683c-15.313 8.994-24.55 13.369-33.058 15.8-8.508 2.431-17.258 4.618-16.772 11.911.486 7.292 5.833 28.196 10.938 32.571s13.369 8.021 18.717 6.077c5.348-1.945 23.578-9.237 23.578-9.237l6.077-24.307-32.815 13.854s-4.861 3.16-8.994-.729c-4.132-3.888-5.104-8.75 2.431-11.667z" style="fill-rule:evenodd;clip-rule:evenodd"/><path d="M349.25 83.75c-1.233-.203-17.5-1.25-22.25 6.75-1.029 1.733-29.5 27.75-59 .75-1.122-1.026-24.5-14.5-37.5-15.25s-27.75 1-46.5 26.25c-2.848 3.835-12 51.95-12 51.95l-9.4 38.2 20-1.2 18.6-74.2s4-20.6 26.6-23.6c2.804-.373 14-.2 24.2 9.199 10.2 9.4 25.8 21.801 52 20 5.519-.379 17.4-5.399 27.6-12.199 10.2-6.801 8-7.601 15.801-7.2 1.598.082 8 5.8 1.6 12.8-2.006 2.194-21.2 21.4-58.4 24-7.581.53-19.8-.2-19.8-.2s-10.399-3.6-13.8 8.8c-3.4 12.4-15.4 42.801-15.4 42.801l17.86 3.93 13.29-36.58s29 1 49.5-6.75 40.25-15.5 48-37.25c1.383-3.885.249-27.501-21.001-31.001zM474.5 210.5l-14 70s-3-2.5-8.75-8.25-13.75 1-13.75 1l-76.25 76.5s-25-24.5-33-32-15.25-.25-15.25-.25-49 48-53.75 54-5.141 5.608.75 12.25c5.1 5.75 12.25.25 12.25.25l48.75-47.25s20.75 23 30.75 31.25 16.25 2.25 16.25 2.25l77-78s8.5 9.25 17 15.25 12.5-7 12.5-7 13.5-64.5 16-80.5-16.5-9.5-16.5-9.5z" style="fill-rule:evenodd;clip-rule:evenodd"/><path d="M478.6 209.2s-65.6 14-78.399 16.2C387.4 227.6 393 239.8 393 239.8l12.8 12.4-44.2 43.6s-20.8-21.399-31.6-31.6-19 1.399-19 1.399-177.493 178.48-183.731 184.038c-6.239 5.559-.907 12.364-.907 12.364s21.325 21.438 27.563 27.903c6.238 6.466 12.477.795 12.477.795s51.611-50.817 54.9-55.354c3.29-4.537-1.134-11.569-4.99-12.591-3.856-1.021-9.562 1.746-9.562 1.746L161 469.75l-14-13.25 174-173.75s24.813 23.403 31 30.75c8 9.5 16.25 2 16.25 2s51.25-50.75 57-57.25 1.25-11.75 1.25-11.75l-7.25-6.25 70.25-15s1.1 1.55 1.7-8.65c.6-10.2-12.6-7.4-12.6-7.4z" style="fill-rule:evenodd;clip-rule:evenodd"/><path d="M281.25 207.5c-9.75-14-34-16.25-34-16.25l-84.25-1-35.75 95.5c3.5 22.75 18 5.25 18 5.25l32-81.75s65.01.063 71.25.5c25 1.75 23 30.25 23 30.25s-20.019 78.137-22.5 80.25c-13.5 11.5-14.75-4-14.75-4s8-55 10.25-70.5-7.75-13.25-7.75-13.25-14 .75-22.5.25S203.5 239 203.5 239s-73.172 148.103-76 149.25c-17.25 7-14.5-11.5-14.5-11.5s5.791-11.75 5.75-15.25c-.25-21.5-17-7.75-17-7.75s-8.689 25.257-8.5 28c1.5 21.75 20.043 25.289 23 26 19.75 4.75 28.75-11 28.75-11l74.25-145.5 6.25.75s-10.726 65.404-9.5 70c8 30 37.25 21 37.25 21l11.25-14.25S281 276 286.5 255s4.5-33.5-5.25-47.5zM111 212.333s2-1.5 5.667-5.833-.667-10-.667-10-17.333-17.833-23.167-23.833c-5.833-6-11-.5-11-.5L76.5 177.5l-19.793-19.25-13.355 12.349L63.667 190.5s.252.195-1 3.833C59.167 204.5 63.5 211 63.5 211s2.833 5.667 11 12.667 21.833 1 21.833 1l25.5 25.5 13-14.667L111 212.333z" style="fill-rule:evenodd;clip-rule:evenodd"/><path d="M88.848 192.572s-3.549 1.879-5.637 4.593c-2.088 2.714.208 5.219.208 5.219s.209.835 3.549 3.132 4.802-.209 4.802-.209l4.801-5.428-7.723-7.307z" style="fill-rule:evenodd;clip-rule:evenodd;fill:#fff"/></svg>