<svg xmlns="http://www.w3.org/2000/svg" xml:space="preserve" width="500" height="500" style="enable-background:new 0 0 500 500"><path d="M145.75 77h19.75v60h-19.75z" style="fill-rule:evenodd;clip-rule:evenodd;fill:#ff901d"/><path d="M126.75 77h19.75v60h-19.75z" style="fill-rule:evenodd;clip-rule:evenodd;fill:#ffb125"/><path d="M176.75 79.5c-1-10-10.25-9.75-10.25-9.75h-38c-12 0-11.5 12.75-11.5 12.75v68.75l13.5-15.5V83.5l33.75-1.5-1.25 29.5 14.25-8s.5-14-.5-24z" style="fill-rule:evenodd;clip-rule:evenodd"/><path d="m379.5 197-128-121-127 118-.5 91-.5 103 257-8z" style="fill-rule:evenodd;clip-rule:evenodd;fill:#e1effb"/><path d="M247.126 229.82h39.984v90.434h-39.984z" style="fill-rule:evenodd;clip-rule:evenodd;fill:#1d4859"/><path d="M211.126 229.82h39.984v90.434h-39.984z" style="fill-rule:evenodd;clip-rule:evenodd;fill:#2d5871"/><path d="M296.338 236.921c.374-22.422-15.321-17.19-15.321-17.19s-38.117-.747-59.791 0c-21.674.748-17.189 16.816-17.189 16.816v79.223h15.321v-82.586l62.78-.747-2.242 98.654h16.442s-.374-71.749 0-94.17z" style="fill-rule:evenodd;clip-rule:evenodd"/><path d="m250 84-15 17.5 102.5 96v201h37v-197z" style="fill-rule:evenodd;clip-rule:evenodd;fill:#ccdfed"/><path d="m393.333 165.333-136.666-126-19 3L63.333 207.667l-4 14 4.667 13 20-3 165.667-152L415 232l12.667 1L441 215.333z" style="fill-rule:evenodd;clip-rule:evenodd;fill:#ff4c4c"/><g style="opacity:.5804"><path d="M435.333 209c-1 11.667-20.666 3.333-20.666 3.333l-165-153.666s-145 137.666-160 151.666-26-1.666-26-1.666-3 13.666-3 15c0 1.333 2.667 10.666 2.667 10.666l21-3.666L249 83.333l171.667 151 13 1 7.333-17s-4.667-21-5.667-9.333z" style="fill-rule:evenodd;clip-rule:evenodd;fill:#f33939"/></g><path d="M371.667 197.333h13.666v164h-13.666zM114.667 197.333h13.667v164h-13.667z" style="fill-rule:evenodd;clip-rule:evenodd"/><path d="M444 204.5c-1.437-2.692-44-43-44-43s-16-2.25-9.25 10.25c1.688 3.126 42.25 39.5 42.25 39.5s6.75 21.25-14 15.75c-3.366-.893-164-152.5-164-152.5l-5 13.833L406 234.25s12.5 13.25 33.5 2.5c2.537-1.299 14.5-13.5 4.5-32.25z" style="fill-rule:evenodd;clip-rule:evenodd"/><path d="m442.363 202.141-42.198-39.522c-14.204-4.322-10.087 8.646-10.087 8.646s41.433 36.96 42.404 40.141c6.793 22.23-13.792 15.232-13.792 15.232S261.013 80.28 255.661 75.134c-5.353-5.146-11.116-1.441-11.116-1.441S83.149 227.818 80.486 228.077c-21.202 2.059-11.733-16.879-11.733-16.879S232.606 56.401 240.428 48.168c7.822-8.233 16.468-1.441 16.468-1.441s101.727 96.191 103.335 96.542c11.321 2.471 9.058-10.086 9.058-10.086S275.834 45.08 264.307 35.405s-27.79-.617-27.79-.617S57.646 203.922 56.196 205.846c-10.086 13.38 1.794 28.262 3.911 30.26 14.615 13.792 30.259 1.853 30.259 1.853L249.691 89.337S403.579 233.57 410.663 237.752c17.085 10.087 29.267-2.301 31.288-4.322 13.175-13.175.412-31.289.412-31.289z" style="fill-rule:evenodd;clip-rule:evenodd"/><path d="m472.667 309.333-16-1.666-15 10.333-88.334 54.333H324L323 360l-14.667-23.667L287.667 330l-80.334-10.333-37.666-16-40.334-15-40-6.334-11.666 3.334V404l104.666 35.333L356.667 425 415 393l74.333-69.667z" style="fill-rule:evenodd;clip-rule:evenodd;fill:#fed9a8"/><path d="M483 319.333S412.333 379 394 394.667C375.667 410.333 349 413 349 413s-132.333 8.667-145 10.333c-12.667 1.667-20.333-1.666-20.333-1.666L75.667 380l3 45.667 114.333 42 131.333-20 23.334-4c23.333-4 39.333-15 39.333-15l88-78.334 9.333-11.666L487 324l-4-4.667z" style="fill-rule:evenodd;clip-rule:evenodd;fill:#f4c892"/><path d="M479.333 303c-14.333-7.667-29.666-.667-29.666-.667l-78 52.334-18.334 12.666-22-2s.334-2.666-1.333-9.666-4-12.334-12.667-22.334c-8.666-10-34-13-34-13s-47.364-6.213-50.666-6.333c-39.569-1.445-66-19.333-84.667-28s-71.667-10.667-71.667-10.667S74 291 80.667 289.667c6.667-1.334 54.301 2.384 66.667 10.333 32.667 21 49.333 23.333 65.333 26s55 7.333 79.666 9.333C317 337.333 318 363.667 318 363.667s-134.126-12.743-144.333-11c-13.667 2.333-4.333 13.666-4.333 13.666s177 14.667 182 15c5 .334 6.667-1.666 6.667-1.666S443.667 323 454.333 316c10.667-7 19.35-1.646 22 1.667 9.334 11.666-.333 22-.333 22S413.333 396.333 388.333 418s-40 21.333-40 21.333-131 19.334-145 21.667S187 459.667 187 459.667l-105.333-40-.333 15.666s64 23 88.667 32S209.334 474 209.334 474s124.334-19 143-21.333C371 450.333 389.667 436 389.667 436s96.236-87.889 98.333-89.667c15.333-13 .388-38.49-8.667-43.333z" style="fill-rule:evenodd;clip-rule:evenodd"/><path d="m70.5 257-45-1.5-8.5 12V420l1 27.5 8.5 4.5 40.5-1 4.5-7 3-175.5z" style="fill-rule:evenodd;clip-rule:evenodd;fill:#2d5871"/><path d="M67 256c-2-1-29 2-29 2s8.5 3 8 14 0 161.5 0 161.5 3.5 15-6.5 19S53 456 53 456l17-5.5S74 271 74 269s-5-12-7-13z" style="fill-rule:evenodd;clip-rule:evenodd;fill:#1d4859"/><path d="M60.667 246.667s-10.667-1.334-31 .333-21 26.667-21 26.667-2.4 102.934 0 107.333c6 11 14.667 0 14.667 0s-.333-92 0-108S37 259.333 37 259.333s1-.333 16.333 0c15.333.334 15.333 14.334 15.333 14.334s.667 147 0 160-13.667 13-13.667 13-15.332.666-23.332.333S23 435.667 23 435.667s.647-9.326 0-11C17.273 409.85 8.6 423 8.6 423s-.06-1.695.133 15c.2 17.267 21.6 21.333 21.6 21.333s16 .667 31.667-.666c15.667-1.334 19.333-17 19.333-17v-173c-.333-19-20.666-22-20.666-22z" style="fill-rule:evenodd;clip-rule:evenodd"/></svg>