<svg xmlns="http://www.w3.org/2000/svg" xml:space="preserve" width="500" height="500" style="enable-background:new 0 0 500 500"><path d="M474 101.667C369-35.333 249.333 74 249.333 74c-49.666-52.667-125.232-38.642-131.667-37.333-78.667 16-103.332 91.286-105 96-30.667 86.666 40 151 40 151s170 170.333 184.667 184.666c14.667 14.334 24.256.696 25.334-.333 141-134.667 209.662-215.624 212-219.333 44.333-70.334 2.375-143.032-.667-147z" style="fill-rule:evenodd;clip-rule:evenodd;fill:#ff405c"/><path d="M472.5 100C369.5-33.5 249 74 249 74s2 400 6 399 5.645-4.322 10-8c22.5-19 152.584-154.895 159.5-160.5 113.5-92 55.636-194.604 48-204.5z" style="fill-rule:evenodd;clip-rule:evenodd;fill:#c30047"/><path d="M351 255s-36-66.667-49.667-91c-13.666-24.333-28 3-28 3l-56 117.667s-26.333-42-39-60.667c-12.667-18.667-27 2.333-27 2.333L135 254.667H29l23.333 29h88.333c13.333 0 15.333-8.334 15.333-8.334L166.333 259s29.667 48 42 64.667c12.334 16.666 25-4.667 25-4.667L289 202s32 60 38.333 71c6.334 11 16 11.333 16 11.333H446L470 255H351z" style="fill-rule:evenodd;clip-rule:evenodd;fill:#e1f3ff"/><path d="M351 255s-36-66.667-49.667-91c-13.666-24.333-28 3-28 3l-23.95 49.461.951 68.01L289 202s32 60 38.333 71c6.334 11 16 11.333 16 11.333h102l25-29.333H351z" style="fill-rule:evenodd;clip-rule:evenodd;fill:#b1d5f1"/></svg>