<svg xmlns="http://www.w3.org/2000/svg" xml:space="preserve" style="enable-background:new 0 0 512 512" viewBox="0 0 512 512"><path d="M103 257.2c-.2-10.1 63.5-3.8 65-77.4.9-41.7-42.6-66.4-80.3-79.8-26.5-9.5-54.2 10.8-54.2 39.9v237c0 28.4 25.4 43.1 52.7 40.4 46.6-4.7 98.5-27.6 98.5-99.7 0-67.4-81.5-48.6-81.7-60.4zm-37.7-87.6c1.5-31.7 14.4-30.3 33.4-30.3 18.9 0 34.3 18.9 34.3 38.4s-13.8 28.7-31.6 37.1c-17.3 8.2-39.3 21.6-36.1-45.2zm41.1 213.5c-23.3 0-39.2 1.7-41.1-37.3-3.1-62.6 29.3-62.7 50.4-52.8 22 10.4 32.8 12.5 32.8 42.7.1 24.2-18.8 47.4-42.1 47.4zm370.2-276.3c-5-25.6-151.7-34.7-151.7 141.9 0 159.8 138.2 191.1 153.4 155.7C499.5 355 366 410.6 363 248.6c-2.7-145.9 121-103.8 113.6-141.8z" style="fill:#2a616c;stroke:#3d3d3d;stroke-width:10;stroke-miterlimit:10"/><path d="M203.9 264.3c-14.7-8.4 5-41.4 54.9-40.4s51.9 54 39.3 85.5C286.5 338.3 222 356.7 222 380s83.6-11.4 83.6 18.1c0 27.1-153.9 35.6-93.6-40.4 19-24 88.6-62.7 66.5-98.3-19.7-31.5-57.1 14.9-74.6 4.9z" style="fill:#f18a62;stroke:#3d3d3d;stroke-width:10;stroke-miterlimit:10"/></svg>