<svg xmlns="http://www.w3.org/2000/svg" xml:space="preserve" width="500" height="500" style="enable-background:new 0 0 500 500"><path d="M241.647 208.284s.697-92.394 0-116.11c-.698-23.718-13.254-20.229-13.254-20.229H35.167c-14.649 2.79-12.556 20.229-12.556 20.229v114.018c0 18.137 17.439 19.532 17.439 19.532s165.324.697 186.948 0c21.625-.699 14.649-17.44 14.649-17.44z" style="fill-rule:evenodd;clip-rule:evenodd;fill:#443b6e"/><path d="M234.375 202.474s.651-82.031 0-104.166c-.651-22.136-12.37-18.881-12.37-18.881H41.667c-13.672 2.604-11.719 18.881-11.719 18.881v102.213c0 16.928 16.276 18.229 16.276 18.229s154.296.651 174.479 0 13.672-16.276 13.672-16.276z" style="fill-rule:evenodd;clip-rule:evenodd;fill:#0089ef"/><path d="M172.852 47.852h5.859v24.414h-5.859zm-85.938 0h5.859v24.414h-5.859z" style="fill-rule:evenodd;clip-rule:evenodd;fill:#82799a"/><path d="M31.25 157.552h205.078v7.162H31.25z" style="fill-rule:evenodd;clip-rule:evenodd;fill:#453d70"/><path d="M108.887 148.438h46.875v23.438h-46.875z" style="fill-rule:evenodd;clip-rule:evenodd;fill:#3c356a"/><path d="M115.887 154.938h32.875v8.938h-32.875z" style="fill-rule:evenodd;clip-rule:evenodd;fill:#fa759e"/><path d="M93.736 39.063h78.05v23.438h-78.05z" style="fill-rule:evenodd;clip-rule:evenodd;fill:#3c356a"/><path d="M100.236 46.063h64.05v8.938h-64.05z" style="fill-rule:evenodd;clip-rule:evenodd;fill:#0089ef"/><path d="M476.647 442.284s.697-92.394 0-116.11c-.698-23.718-13.254-20.229-13.254-20.229H270.167c-14.648 2.79-12.556 20.229-12.556 20.229v114.018c0 18.137 17.439 19.532 17.439 19.532s165.323.697 186.947 0c21.626-.699 14.65-17.44 14.65-17.44z" style="fill-rule:evenodd;clip-rule:evenodd;fill:#443b6e"/><path d="M469.375 436.474s.651-82.031 0-104.166c-.651-22.136-12.37-18.881-12.37-18.881H276.667c-13.672 2.604-11.719 18.881-11.719 18.881v102.213c0 16.928 16.275 18.229 16.275 18.229s154.297.651 174.479 0 13.673-16.276 13.673-16.276z" style="fill-rule:evenodd;clip-rule:evenodd;fill:#0089ef"/><path d="M407.852 281.852h5.859v24.414h-5.859zm-85.938 0h5.859v24.414h-5.859z" style="fill-rule:evenodd;clip-rule:evenodd;fill:#82799a"/><path d="M266.25 391.552h205.078v7.162H266.25z" style="fill-rule:evenodd;clip-rule:evenodd;fill:#453d70"/><path d="M343.887 382.438h46.875v23.438h-46.875z" style="fill-rule:evenodd;clip-rule:evenodd;fill:#3c356a"/><path d="M350.887 388.938h32.875v8.938h-32.875z" style="fill-rule:evenodd;clip-rule:evenodd;fill:#fa759e"/><path d="M328.736 273.063h78.05v23.438h-78.05z" style="fill-rule:evenodd;clip-rule:evenodd;fill:#3c356a"/><path d="M335.236 280.063h64.05v8.938h-64.05z" style="fill-rule:evenodd;clip-rule:evenodd;fill:#0089ef"/><path d="M435.275 175.888c-23.703-81.401-109.623-101.6-109.623-101.6V41.202l-58.43 48.391 58.974 52.655s-3.481-32.74 0-32.596c52.239 2.177 70.358 42.219 73.772 46.813 22.472 30.237 13.991 80.354 13.991 80.354s26.196 5.441 27.829.544-3.736-51.942-6.513-61.475z" style="fill-rule:evenodd;clip-rule:evenodd;fill:#443b6e"/><path d="M427.164 167.277c-23.961-69.453-107.34-88.176-107.34-88.176V54.199l-43.457 35.645 43.945 38.574s-3.124-26.985 0-26.855c46.875 1.953 66.558 28.402 70.086 32.136 37.512 39.694 30.5 98.724 30.5 98.724s13.637 4.883 15.102.488-5.93-57.211-8.836-65.634z" style="fill-rule:evenodd;clip-rule:evenodd;fill:#f5739d"/><path d="m234.09 408.001-58.974-52.655s3.481 32.74 0 32.596c-52.239-2.177-70.358-42.219-73.773-46.813-22.471-30.237-13.99-80.354-13.99-80.354s-26.197-5.441-27.83-.544c-1.633 4.897 3.737 51.943 6.514 61.477 23.703 81.401 109.623 101.6 109.623 101.6v33.085l58.43-48.392z" style="fill-rule:evenodd;clip-rule:evenodd;fill:#443b6e"/><path d="M224.945 407.75 181 369.176s3.124 26.985 0 26.855c-46.875-1.953-66.558-28.402-70.086-32.136-37.512-39.694-30.5-98.724-30.5-98.724s-13.637-4.883-15.102-.488 5.93 57.21 8.836 65.633c23.961 69.453 107.34 88.176 107.34 88.176v24.902l43.457-35.644z" style="fill-rule:evenodd;clip-rule:evenodd;fill:#f5739d"/></svg>