<svg xmlns="http://www.w3.org/2000/svg" xml:space="preserve" width="51.02" height="51.02"><ellipse cx="14.598" cy="34.122" fill="#FFE64C" fill-rule="evenodd" clip-rule="evenodd" rx="12.854" ry="12.898"/><path fill-rule="evenodd" d="M50.657 11.364c-.096-.318-.367-.419-.677-.53-.516-.186-1.032-.405-1.572-.585l-.421-.183c-.441-.158-.876-.294-1.289-.475-.698-.306-1.452-.501-2.14-.796-.231-.099-.454-.137-.686-.229-.386-.152-.801-.326-1.188-.466-.239-.086-.457-.125-.687-.229-.406-.184-.844-.324-1.28-.476-.979-.339-1.951-.729-2.944-1.088-2.123-.769-4.245-1.585-6.383-2.368-.562-.206-1.148-.452-1.71-.658-.275-.102-.535-.184-.786-.293l-.467-.146c-.213-.101-.912-.422-1.207-.375-.19.031-.349.118-.503.183-.267.113-.539.188-.796.293-.969.396-1.972.697-2.926 1.088-.423.172-.837.257-1.253.438-.665.291-1.37.536-2.076.769-.481.157-.993.376-1.463.566-.663.269-1.314.483-1.994.714-.751.254-1.521.598-2.268.868-1.428.516-2.835 1.062-4.243 1.573-.419.153-.822.257-1.234.431-.715.3-1.491.59-2.222.85-.448.16-.886.312-1.308.484-.498.205-.975.278-1.079.869-.034.194.035.371.083.485.213.509.737.476 1.463.475h4.115c.177.166.095.617.174.878.208.686.425 1.28.786 1.802a5.073 5.073 0 0 0 2.012 1.701l.805.301c.191.055.333.053.466.146l-.009 2.295c-.073.105-.408.066-.558.092-.518.09-1.011.125-1.5.229-.831.177-1.604.436-2.35.704-.282.102-.569.285-.841.394a5.31 5.31 0 0 0-.86.42c-.568.356-1.132.699-1.664 1.088-2.084 1.524-3.664 3.702-4.7 6.282-.211.525-.383 1.118-.558 1.691-.128.421-.122.825-.229 1.271a4.195 4.195 0 0 0-.128.97H.307v2.423h.055c.003.35.078.717.137 1.024.083.428.103.806.219 1.207.184.63.359 1.261.595 1.847l.375.823c.405.957.984 1.776 1.563 2.56 1.798 2.434 4.369 4.284 7.709 5.167 1.705.451 4.031.664 6.008.293.423-.08.791-.105 1.18-.22 2.129-.623 3.787-1.428 5.331-2.615.499-.383 1.137-.914 1.527-1.398.117-.146.498-.644.668-.687l15.728.009h3.119c.498 0 1.144.067 1.591-.027.662-.139 1.107-.433 1.546-.786.532-.43 1.13-1.607.877-2.688a3.405 3.405 0 0 0-.585-1.28c-.214-.288-.538-.542-.851-.731-.137-.083-.396-.125-.484-.256-.041-.062-.111-.553-.137-.658a4.046 4.046 0 0 0-.421-1.024c-.831-1.418-1.973-2.241-3.878-2.597l-1.362-.019c-.102-.145-.045-.739-.045-1.006v-2.652l.009-12.143c.063-.127.298-.102.448-.146.345-.102.691-.249.996-.402.82-.411 1.485-1.067 1.967-1.82.313-.489.489-1.042.649-1.691.028-.117.063-.728.137-.76l1.134-.009h2.917c.838.001 1.434.065 1.628-.594h.055v-.595h-.055zM25.748 39.94c-.706 1.251-1.475 2.435-2.543 3.319-.484.401-.912.846-1.472 1.18-.58.346-1.153.789-1.811 1.061-.714.295-1.456.542-2.24.786-.711.222-1.5.214-2.305.348-.241.009-.481.019-.722.027a69.723 69.723 0 0 1-.466-.019l-.384-.009c-.34-.056-.73-.06-1.042-.119-.454-.086-.856-.104-1.28-.229a17.39 17.39 0 0 1-2.524-.96c-2.557-1.206-4.575-3.355-5.797-5.897-.229-.478-.4-.991-.585-1.5l-.137-.53c-.192-.544-.262-1.186-.375-1.811l-.045-.595c-.05-.304-.078-.854-.027-1.18v-.466l.082-.924.201-1.162.384-1.353c.266-.899.796-1.854 1.262-2.578 1.549-2.409 3.734-4.298 6.712-5.268a14.891 14.891 0 0 1 1.536-.403l1.006-.146.85-.064.448-.009c2.592.001 4.502.675 6.191 1.564 2.604 1.37 4.52 3.537 5.67 6.364.332.818.579 1.739.768 2.716l.073.777c.076.402.113 1.094.046 1.527-.066.429-.029.854-.101 1.234l-.119.859c-.209.909-.48 1.754-.795 2.552-.123.308-.303.629-.459.908zM15.533 17.437l.064-.037 1.637.009.045.027c.04.161.019.402.019.594v1.207c0 .186.053.523-.019.667-.06.075-.277.016-.365-.008-.323-.089-1.152-.045-1.381-.192-.084-.347-.019-1.024-.019-1.427.001-.265-.037-.608.019-.84zm3.521.045.128-.064 5.404.019.064.055v6.163l-.036.019c-.102.027-.256-.194-.32-.256a8.809 8.809 0 0 0-.887-.759c-.709-.529-1.449-.957-2.259-1.399-.171-.092-.341-.184-.512-.274-.304-.123-.6-.258-.896-.375-.234-.092-.48-.14-.676-.265l-.01-2.864zm7.407-.082c.546.002 1.091.006 1.637.009.109.157.055.581.055.832v10.58c-.039.025-.079.045-.137.028-.109-.056-.125-.274-.174-.394l-.485-1.043-.612-1.069c-.09-.135-.331-.387-.366-.539v-7.617c-.001-.233-.066-.691.082-.787zM45.93 39.09c.311.089.532.279.704.512.113.154.271.451.229.741-.086.57-.313.904-.75 1.115-.287.139-.829.073-1.226.073H42.19l-15.226-.009-.019-.01c-.016-.232.222-.436.311-.612.201-.396.39-.799.576-1.197.104-.222.132-.457.274-.632H44.85l1.08.019zm-3.722-4.143c.195.041.411.139.585.192.782.244 1.251.783 1.674 1.39.084.122.364.598.319.777v.019c-.148.097-.858.036-1.106.036h-2.917l-12.107-.009c-.03-.016-.031-.015-.046-.046-.04-.112.057-.371.083-.484.093-.405.116-.842.191-1.262.035-.194-.02-.478.073-.622l.055-.046h11.642c.529.001 1.096-.04 1.554.055zm-6.786-1.774-4.068.01c-.253 0-1.304.058-1.445-.018-.083-.055-.046-.566-.046-.741V18.269c0-.152-.039-.736.01-.805.024-.035.084-.027.128-.045l3.959.009c.293 0 1.355-.051 1.491.036l.009 11.723v2.881c-.001.271.059.952-.038 1.105zm3.549-.064c-.087.124-.663.073-.887.073-.144 0-.663.038-.741-.018-.166-.098-.092-.618-.092-.888V18.442c0-.209-.048-.819.01-.923.022-.048.05-.056.091-.082.313-.001 1.466-.059 1.628.046.083.391.019.925.019 1.353v13.478c-.001.173.041.697-.028.795zm3.968-19.568a2.913 2.913 0 0 1-.411.804l-.184.174c-.348.456-1.03.881-1.664 1.042l-.266.009c-.823.16-1.97.083-2.926.083H17.307c-2.273 0-4.073.2-5.084-1.116l-.183-.173c-.144-.168-.231-.381-.329-.594l-.082-.11-.009-.128c-.048-.103-.143-.158-.027-.274h31.394l.036.055c.046.124-.06.157-.084.228zm1.646-2.752-.036.018-25.797-.009h-8.12c-.228 0-.594.059-.75-.009l-.009-.11.009-.019c.131-.087.304-.092.457-.155.426-.175.873-.311 1.317-.484 1.032-.404 2.084-.844 3.164-1.17.125-.038.287-.138.412-.184.37-.133.716-.259 1.061-.393.764-.296 1.506-.515 2.268-.814.812-.317 1.667-.669 2.487-.96.593-.21 1.141-.396 1.728-.612.202-.074.448-.206.649-.274a19.868 19.868 0 0 0 1.564-.585c.153-.067.276-.07.43-.128.578-.217 1.219-.425 1.783-.686.262.005.428.129.622.201.26.097.519.184.759.283.965.398 1.965.688 2.908 1.088l.165.028c.464.177.971.382 1.436.567.149.06.285.056.43.128.487.245 1.038.37 1.563.585.979.4 2.028.749 3.009 1.152.778.32 1.608.521 2.351.878l.173.037c.26.1.516.192.796.292.724.259 1.491.557 2.204.851.18.074.91.252.979.375.014.038 0 .074-.012.109zM25.5 30.366a9.181 9.181 0 0 0-1.17-2.45c-1.564-2.359-3.393-3.79-6.292-4.82-.341-.121-.661-.146-1.033-.237-.747-.184-1.62-.27-2.561-.257l-.32.009-.923.083c-.861.171-1.645.319-2.396.576a9.094 9.094 0 0 0-1.792.859c-.402.249-.781.47-1.162.731-.373.256-.677.607-1.024.887-.262.211-.503.47-.713.731-.207.258-.459.495-.649.769a14.233 14.233 0 0 0-1.582 2.963c-.271.691-.389 1.449-.549 2.25-.044.224-.008.428-.055.676-.092.487-.089 1.308 0 1.792.053.285.014.513.064.769.094.481.194.965.32 1.391 1.043 3.54 3.229 5.839 6.328 7.323.664.318 1.427.585 2.222.769l1.015.164c.343.069.732.03 1.116.092l.503.019.997-.055c.626-.109 1.238-.152 1.802-.329 3.037-.955 4.99-2.437 6.593-4.819.348-.517.708-1.11.951-1.719.28-.699.546-1.444.704-2.25.271-1.378.294-3.23-.009-4.599-.101-.455-.261-.907-.385-1.318zm-1.353 5.624c-.157.671-.35 1.339-.604 1.929-1.17 2.719-3.366 4.612-6.356 5.515-.518.156-1.077.194-1.646.302l-.723.036c-.329.054-.997-.013-1.28-.063-.41-.075-.77-.081-1.152-.174-.662-.161-1.291-.416-1.856-.668-2.122-.942-3.728-2.635-4.719-4.709-.222-.464-.346-.935-.521-1.454-.322-.949-.541-2.718-.311-3.96.104-.566.181-1.1.347-1.608.985-3.015 3.083-5.096 5.962-6.218.632-.247 1.338-.364 2.067-.503l.878-.074c4.415 0 6.963 2.005 8.714 4.664.261.396.417.833.631 1.28.645 1.34 1.01 3.821.569 5.705zm-5.587-1.783c-.566-.431-1.266-.729-2.012-.979-.179-.06-.918-.14-.997-.247-.065-.08-.027-.618-.027-.777l.009-2.606c.072-.115.878.092 1.042.129.724.161 1.991.905 2.396-.073.214-.52-.049-.886-.338-1.107-.615-.469-2.064-.769-3.1-.822-.166-.239.009-.943-.055-1.299-.082-.459-.375-.79-.914-.786-.364.153-.575.169-.732.539-.19.449.08 1.111-.037 1.61-.124.072-.293.07-.457.109l-.649.21c-.556.243-1.033.556-1.491.896-.69.515-1.496 1.925-1.115 3.229.25.854.83 1.512 1.627 1.819.469.18.978.364 1.5.457.18.031.567-.077.64.046.054.091.018.838.018 1.015v2.67l-.055.046c-.126.052-.66-.087-.805-.128-.191-.054-.357-.076-.54-.128-.67-.189-2.036-.934-2.479-.055-.254.505-.112.981.238 1.243.665.497 1.62.686 2.561.905l.951.119c.142.072.073.588.073.813 0 .547.031.923.347 1.143.616.431 1.253-.008 1.363-.63.052-.298-.089-1.064.019-1.271.072-.14.478-.104.649-.146.491-.125.986-.27 1.381-.503.763-.451 1.384-1.017 1.71-1.901.484-1.312.1-2.916-.721-3.54zm-4.801-1.445c-.206.118-.561-.058-.722-.128-.145-.063-.275-.079-.412-.137-.391-.167-.737-.641-.594-1.299.139-.638.62-1.129 1.17-1.354l.439-.164h.083l.018.009c.093.172.037.583.037.823v1.563c-.001.235.032.497-.019.687zm3.512 4.316c-.291.647-.651.912-1.354 1.144-.121.039-.208.102-.393.1-.094-.143-.046-.518-.046-.74v-1.856c0-.227-.058-.656.055-.786.29.003.51.119.722.201.565.217.797.34 1.052.868.125.26.062.849-.036 1.069z" clip-rule="evenodd"/><path fill="#C0D863" fill-rule="evenodd" d="M44.854 37.407s-.482-2.294-2.964-2.553l-13-.026s.033 1.871-.328 2.592l16.292-.013zm1.074 1.677-17.898-.039s-.827 2.103-1.182 2.516l19.099-.039s.701-.163.871-.971v-.472s-.159-.802-.89-.995z" clip-rule="evenodd"/><path fill="#C0D863" fill-rule="evenodd" d="M37.126 17.436h1.871v15.949h-1.871zM27.282 4.047 9.791 10.61v.23l34.85-.033v-.262z" clip-rule="evenodd" opacity=".871"/><path fill="#C0D863" fill-rule="evenodd" d="M11.432 13.203c.728 2.265 2.914 2.5 2.914 2.5h25.911c2.304-.276 2.842-2.5 2.842-2.5H11.432z" clip-rule="evenodd"/><path fill="#C0D863" fill-rule="evenodd" d="m15.507 17.436.017 2.349c1.195.042 1.716.225 1.716.225v-2.574h-1.733zm10.849.015v8.451c.709.866 1.807 3.308 1.807 3.308l.024-11.759h-1.831z" clip-rule="evenodd" opacity=".871"/></svg>