<svg xmlns="http://www.w3.org/2000/svg" xml:space="preserve" width="105" height="75"><path fill="#F54E50" fill-rule="evenodd" d="M102.041 52.375s-1.545-3.878-1.854-3.946c0 0-.721.96-1.544.892 0 0-2.401.515-3.466-.274 0 0-1.304 2.917-1.784 3.604 0 0-1.029 1.818 0 3.294 0 0 .651 1.612 4.53 1.818 0 0 2.95.344 4.426-2.196l.206-1.44-.514-1.752z" clip-rule="evenodd"/><path fill="#F8F2A4" fill-rule="evenodd" d="m100.496 53.645-.994-2.643-.721-1.441-.104-.274h-.205l-.961 2.745-1.236-.995-.309.652-.857 1.784-.172.412-.103 1.235s1.063.721 2.849.755l1.234.068.378-.274c.001 0 1.853-.068 1.201-2.024z" clip-rule="evenodd"/><path fill="#5E3A53" fill-rule="evenodd" d="m98.752 42.104-.157-13.49L52.318 9.75l-3.608.079L2.552 28.183c-1.765.706-.275 1.882-.275 1.882l46.629 17.609 3.02-.04.77-.2 43.203-16.54.035 11.118c-2.197.686-2.402 2.573-2.402 2.573v2.059c.754 2.368 2.882 2.78 2.882 2.78l.069 3.774c.721 1.51 1.955.034 1.955.034V49.32c1.613 0 2.711-2.265 2.711-2.265l.035-2.23c-.481-2.505-2.432-2.721-2.432-2.721z" clip-rule="evenodd"/><path fill="#F54E50" fill-rule="evenodd" d="m74.335 41.634-22.84 8.785-2.196-.165-23.334-8.62V57.94c2.361 5.765 14 7.302 14 7.302 2.69 1.208 14.549.604 14.549.604 19.437-1.373 19.931-8.016 19.931-8.016l-.11-16.196z" clip-rule="evenodd"/><path fill-rule="evenodd" d="M84.895 31.477c-.045-1.098-1.665-.878-1.665-.878L51.55 42.293c-.823.627-.486 1.185-.486 1.185 0 .862 1.393.581 1.393.581l31.707-11.621c.959-.413.731-.961.731-.961zm-63.002 1.052-11.026-4.118s-2.105 0-1.007 1.693l10.798 4.026c-.001.001 2.15.321 1.235-1.601z" clip-rule="evenodd"/></svg>