<svg xmlns="http://www.w3.org/2000/svg" xml:space="preserve" width="500" height="500" style="enable-background:new 0 0 500 500"><path d="M380 78c-19.75-21-47.75-11.5-47.75-11.5s1.385 8.859 5 8c41-9.75 47 32.25 47 32.25s8.123 2.469 7.966-1.036c-.718-16-9.602-24.934-12.216-27.714z" style="fill-rule:evenodd;clip-rule:evenodd"/><path d="m403.709 108.003-62.785 10.409 40.664 151.595 57.904-12.362 4.555-4.229z" style="fill-rule:evenodd;clip-rule:evenodd;fill:#fc657e"/><path d="M447.5 246.5c-4.75-18.25-33.75-134.25-33.75-134.25s-.75-9.75-15.75-8-53.75 8.5-53.75 8.5l1.25 7.75 59-8L439 249.75s3.75 6-3 7.5-58 8-58 8l1 8.75 59-7.75s14.25-1.5 9.5-19.75zM244.75 15c-3.01.073-60.25 8.5-50.5 70.5.66 4.198 8.25-.5 8.25-.5s-12.5-49.25 42-63.25c3.157-.811 50-2.25 54.75 48.25.258 2.738 9 0 9 0s-1.75-56.5-63.5-55z" style="fill-rule:evenodd;clip-rule:evenodd"/><path d="M327.333 71 176 96l13 196.333 4.333 5.334H199L379 271z" style="fill-rule:evenodd;clip-rule:evenodd;fill:#f5c84c"/><path d="M336.333 72.333c-2.666-10-13-7-13-7L325.667 73 376 267s-169.25 26.75-177.5 27.75-8-4.5-8-4.5l-12.25-192.5L197.333 94s-1.666-9-15.666-7-12.333 11.667-12.333 11.667 10.333 174.666 11.667 191c1.333 16.333 18 14 18 14L385 273S339 82.333 336.333 72.333z" style="fill-rule:evenodd;clip-rule:evenodd"/><path d="M324 65 181 87l-1.333 10.333 147-22.666zm119.667 66.667C424 133.333 418 133.333 418 133.333l.333 4.667 1 3.333h4l22.667-.666s7.333-2.334 7.667 8.333C454 159.667 454 254 454 254s5.667 15-13 18.667c-18.667 3.666-233 38-233 38S179.333 318 170.333 297 86.745 103.412 86.745 103.412L78 107l84.667 193.333s12.667 24.667 41 20.667S446 280.667 446 280.667 462.333 277 462.333 256V150.333s1-20.333-18.666-18.666z" style="fill-rule:evenodd;clip-rule:evenodd"/><path d="m149.231 147.077-9.846 1.538 70.461 162.77 9.846-2.155zm36.999-3-9.845 1.538 70.461 162.77 9.846-2.155zm39 0-9.845 1.538 70.461 162.77 9.846-2.155zm38-1-9.845 1.538 70.461 162.77 9.846-2.155zm38-1-9.845 1.538 70.461 162.77 9.846-2.155zm38-1-9.845 1.538 61.961 142.52 9.846-2.155zm39-1-9.845 1.538 58.711 135.77 9.846-2.155z" style="fill-rule:evenodd;clip-rule:evenodd"/><path d="m101.136 141.288 2.652 8.712 328.409-9.091v-7.955zM84.823 79.68l-67.566-7.986c-5.464-.754-10.322 4.939-10.851 12.714-.529 7.774 3.472 14.687 8.936 15.439l67.566 7.986c5.464.752 10.322-4.94 10.851-12.715s-3.472-14.685-8.936-15.438z" style="fill-rule:evenodd;clip-rule:evenodd"/><path d="M77.649 83.558 22.58 78.982a8.103 8.103 0 0 0-1.561 16.128l55.069 4.574a8.1 8.1 0 0 0 8.844-7.283 8.1 8.1 0 0 0-7.283-8.843z" style="fill-rule:evenodd;clip-rule:evenodd;fill:#fc657e"/><path d="m423.106 384.849-12.879-2.272-219.318-3.03 7.954-14.773 21.213-26.136 107.954-20.076 57.954-10.228 10.985-6.061 3.03-6.818-3.03-7.575-12.121-1.895-162.5 28.409s-22.349 8.713-27.272 17.425c-4.925 8.712-31.818 48.484-31.818 48.484s-3.409 20.455 5.303 21.591c8.712 1.137 219.697 4.167 219.697 4.167l26.515-3.788 11.743-8.712-3.41-8.712z" style="fill-rule:evenodd;clip-rule:evenodd;fill:#dae6f1"/><path d="M387.5 282.5c-4.03-.057-49 7-49 7l.25 9L384 291s18 1 6.25 12.25c-1.778 1.703-145 24.25-145 24.25s-23.443.112-41.25 22.5c-19.143 24.066-18.75 26.75-18.75 26.75s-7.5 8 5.5 8.25 13-8.5 13-8.5H197l14.75-23s7.25-14.5 34.5-17.75 133.5-21 133.5-21 20-1.5 22.5-9.75 3-22.25-14.75-22.5z" style="fill-rule:evenodd;clip-rule:evenodd"/><path d="M415.75 376.5h-219.5l-8.75 8.75s222.842-1.137 226.5.5c19 8.5.5 13 .5 13s-219.5 0-238-.25-8.5-20-8.5-20 19-27 29-41.75 40.25-21.25 40.25-21.25l144.75-24-2.75-9S278.5 300.75 237 307.5s-48 23.75-48 23.75-18.5 26.75-26.5 37.25-8.443 18.019-8.25 19c4.25 21.633 22 20.75 22 20.75s237.017.342 240.5 0c12.75-1.25 14.271-12.998 14.5-16.25 1-14.25-15.5-15.5-15.5-15.5z" style="fill-rule:evenodd;clip-rule:evenodd"/><circle cx="374.303" cy="437.303" r="36.062" style="fill-rule:evenodd;clip-rule:evenodd"/><circle cx="374.302" cy="437.301" r="28.333" style="fill-rule:evenodd;clip-rule:evenodd;fill:#29589f"/><circle cx="374.322" cy="437.322" r="14.197" style="fill-rule:evenodd;clip-rule:evenodd"/><circle cx="374.333" cy="437.333" r="7" style="fill-rule:evenodd;clip-rule:evenodd;fill:#5290db"/><circle cx="221.303" cy="437.303" r="36.062" style="fill-rule:evenodd;clip-rule:evenodd"/><circle cx="221.302" cy="437.301" r="28.333" style="fill-rule:evenodd;clip-rule:evenodd;fill:#29589f"/><circle cx="221.322" cy="437.322" r="14.197" style="fill-rule:evenodd;clip-rule:evenodd"/><circle cx="221.333" cy="437.333" r="7" style="fill-rule:evenodd;clip-rule:evenodd;fill:#5290db"/></svg>