<svg xmlns="http://www.w3.org/2000/svg" xml:space="preserve" width="75" height="75"><path fill="#DFB28B" fill-rule="evenodd" d="M70.331 58.79H5.939a1.308 1.308 0 1 0 0 2.615h64.392a1.308 1.308 0 1 0 0-2.615zM9.562 63.496c3.212 7.171 10.085 7.097 10.085 7.097h37.725c8.291-1.494 9.188-7.246 9.188-7.246l-56.998.149z" clip-rule="evenodd"/><path fill="#E6E9EE" fill-rule="evenodd" d="M71.063 54.983c-.325-.964-.656-1.896-1.169-2.677-.421-.641-.969-1.388-1.559-1.863-.676-.545-1.334-1.195-1.66-2.084-.355-.968-.478-2.189-.729-3.219l-.018-.355-.135-.254c-.084-.313-.051-.57-.17-.847-.354-.819-.75-1.495-1.305-2.101-1.566-1.714-5.02-1.596-6.878-3.016-.507-.387-.829-1.002-1.203-1.524-.983-1.378-1.862-2.962-3.438-3.744-1.275-.633-3.458-.528-5.066-.221-.732.141-1.742.331-2.592.153-.784-.165-1.395-.614-1.982-.983-.661-.415-1.321-.83-1.999-1.202-.513-.282-1.085-.508-1.66-.712-.28-.099-.456-.036-.678-.187h-.642c-.562.001-1.139.164-1.593.322-1.202.419-2.147 1.197-3.219 1.762-.645.34-1.2.826-2.033 1-.837.174-1.829-.017-2.558-.153-1.629-.304-3.783-.409-5.083.221-1.577.765-2.487 2.4-3.456 3.777-.527.75-.998 1.473-1.813 1.932-.552.311-1.205.447-1.881.627-1.951.519-3.887 1.164-4.93 2.608-.753 1.043-1.005 2.563-1.338 4.032-.247 1.085-.333 2.051-.831 2.846-.45.72-1.151 1.197-1.66 1.847-.506.646-1.035 1.235-1.474 1.965-.38.632-.662 1.426-.864 2.202-.084.48-.254 1.49-.254 1.49l66.174.001c-.242-.432-.137-1.148-.304-1.643z" clip-rule="evenodd"/><path fill-rule="evenodd" d="M73.869 59.457c-.261-1.251-1.121-2.14-2.205-2.563-.246-.436-.14-1.159-.309-1.658-.328-.973-.661-1.912-1.179-2.7-.425-.646-.977-1.4-1.573-1.88-.682-.55-1.346-1.207-1.674-2.103-.359-.977-.482-2.209-.736-3.247l-.017-.359-.137-.256c-.085-.316-.05-.575-.171-.854-.355-.826-.758-1.509-1.316-2.12-1.58-1.729-5.063-1.609-6.939-3.042-.511-.391-.837-1.011-1.213-1.538-.992-1.39-1.88-2.988-3.471-3.777-1.285-.639-3.488-.533-5.111-.223-.739.143-1.758.334-2.615.154-.791-.166-1.406-.619-1.999-.991-.667-.419-1.333-.838-2.017-1.214-.518-.284-1.095-.512-1.676-.718-.283-.101-.459-.036-.684-.188h-.649c-.567 0-1.149.165-1.607.324-1.212.423-2.166 1.208-3.248 1.777-.65.343-1.21.834-2.051 1.009-.845.176-1.845-.017-2.581-.154-1.644-.307-3.816-.413-5.128.223-1.591.771-2.509 2.422-3.487 3.812-.532.756-1.007 1.485-1.829 1.948-.557.313-1.215.451-1.897.633-1.968.522-3.922 1.175-4.974 2.632-.76 1.052-1.014 2.586-1.351 4.067-.249 1.096-.336 2.069-.837 2.872-.454.726-1.162 1.208-1.675 1.862-.51.652-1.044 1.246-1.487 1.983-.383.637-.668 1.438-.872 2.222l-.257 1.452c-.123.179-.766.408-.974.564-.97.729-1.406 1.664-1.384 3.401h.085c.312 1.496 1.362 2.448 2.854 2.769l1.914.052c.259.131.393.954.547 1.247.438.834.838 1.643 1.35 2.394 1.078 1.578 2.614 2.758 4.222 3.811.67.439 1.495.672 2.256 1.009.976.433 2.176.489 3.367.684h38.305c1.061-.184 2.042-.312 2.974-.581 4.201-1.214 7.149-4.577 8.633-8.546.538-.128 1.281.06 1.846-.051 1.656-.325 2.53-1.228 2.975-2.77h.085v-1.367h-.083zM7.36 56.107c.204-.555.306-1.169.599-1.641.327-.528.636-1.018 1.008-1.487.966-1.218 2.304-2.047 2.82-3.76.163-.54.333-1.089.444-1.658.284-1.445.351-3.021 1.111-3.982.781-.987 2.371-1.188 3.726-1.606 1.349-.417 2.438-.908 3.418-1.658.415-.317.741-.813 1.043-1.247.311-.448.706-.89 1.008-1.351.613-.934 1.262-2.023 2.376-2.444.501-.189 1.45-.108 1.966-.017l.667.017c1.076.258 2.791.528 4.085.291 1.546-.284 2.887-1.297 4.034-2.034l1.538-.804.65-.171c2.045-.004 2.926 1.075 4.239 1.795.351.192.688.388 1.026.581l.238.052c.245.132.585.352.872.427 1.198.315 2.629.217 3.847 0h.461c.784-.149 2.199-.44 3.043-.137 1.377.497 2.038 1.999 2.837 3.094.175.24.396.479.563.718.285.406.59.877.975 1.18.99.777 2.101 1.297 3.487 1.709 1.336.396 2.978.622 3.726 1.606 1.108 1.457.969 4.617 1.847 6.375.418.837 1.111 1.642 1.812 2.205.217.199.434.398.65.599.527.66.902 1.297 1.299 2.119.215.448.449 1.093.461 1.709l-.018.034c-.253.145-.857.068-1.23.068h-13.81l-46.784-.018c-.122-.086-.094-.401-.034-.564zm58.953 8.17c-.222.594-.675 1.167-1.025 1.657-1.645 2.305-3.713 3.553-6.837 4.393-1.314.354-3.167.188-4.752.188h-31.69c-1.333 0-2.708.067-3.846-.154-3.175-.617-5.373-2.306-6.991-4.495-.455-.614-.959-1.36-1.214-2.153l.103-.085h55.176c.338 0 .99-.104 1.248.034.113.105-.116.465-.172.615zm5.316-3.88a1.208 1.208 0 0 1-.854.871l-2.992.018H18.146l-12.443-.018c-.448-.124-1.068-.761-.804-1.452.174-.454.465-.592.889-.804h62.406c1.373 0 2.824-.297 3.316.649.078.152.189.444.119.736z" clip-rule="evenodd"/><path fill-rule="evenodd" d="M28.984 37.052h2.391v2.391h-2.391zM25.548 41.684h2.391v2.39h-2.391z" clip-rule="evenodd" opacity=".871"/><path fill-rule="evenodd" d="M19.721 46.314h2.39v2.391h-2.39zM16.285 51.992h2.391v2.391h-2.391zM28.984 47.51h2.391v2.391h-2.391zM33.616 42.879h2.39v2.39h-2.39zM38.247 38.247h2.39v2.391h-2.39zM44.074 37.052h2.391v2.391h-2.391zM46.314 41.684h2.391v2.39h-2.391zM41.684 47.51h2.391v2.391h-2.391zM34.811 51.992h2.391v2.391h-2.391zM47.36 51.992h2.391v2.391H47.36zM51.992 47.51h2.391v2.391h-2.391zM54.383 42.879h2.391v2.39h-2.391zM61.255 51.992h2.391v2.391h-2.391zM19.758 28.498s-.037-1.382-1.195-2.838c0 0-2.503-2.428-2.951-3.213 0 0-.288-.176-.405-1.285 0 0-.08-.844.107-1.591 0 0 .261-1.307 2.017-2.688 0 0 1.531-1.382 2.054-2.689 0 0 .374-.336.448-2.391h-2.428s.635 1.606-1.979 3.66c0 0-2.054 1.868-2.353 3.586 0 0-.523 1.232-.112 2.839 0 0 .523 1.793 1.457 2.913 0 0 2.876 2.278 2.913 3.548 0 0 .299.71.075 2.092 0 0-.56 1.719-1.867 2.54 0 0-2.428 2.092-2.54 3.848 0 0-.112.934-.075 1.382l2.316.037s-.187-.859.597-2.129l1.419-1.644s1.644-.934 2.428-3.586c0 0 .373-1.494.074-2.391zM43.961 18.189s-.037-1.382-1.194-2.838c0 0-2.503-2.429-2.95-3.213 0 0-.289-.176-.406-1.286 0 0-.08-.843.107-1.59 0 0 .261-1.307 2.016-2.689 0 0 1.532-1.382 2.055-2.688 0 0 .373-.337.448-2.391h-2.428s.636 1.605-1.979 3.66c0 0-2.054 1.867-2.353 3.586 0 0-.523 1.232-.112 2.839 0 0 .522 1.792 1.457 2.913 0 0 2.875 2.278 2.912 3.548 0 0 .299.71.075 2.092 0 0-.56 1.718-1.867 2.54 0 0-2.428 2.092-2.54 3.847 0 0-.112.935-.075 1.383l2.316.037s-.187-.859.598-2.129l1.419-1.644s1.644-.934 2.428-3.586c-.001 0 .372-1.494.073-2.391zM28.643 24.913c-1.307-.822-1.867-2.54-1.867-2.54-.224-1.382.075-2.092.075-2.092.037-1.27 2.913-3.548 2.913-3.548.934-1.121 1.457-2.914 1.457-2.914.411-1.605-.112-2.838-.112-2.838-.299-1.719-2.353-3.586-2.353-3.586-2.615-2.055-1.979-3.66-1.979-3.66h-2.428c.075 2.054.448 2.391.448 2.391.523 1.307 2.055 2.688 2.055 2.688 1.755 1.382 2.017 2.689 2.017 2.689.187.747.107 1.59.107 1.59-.118 1.11-.406 1.286-.406 1.286-.448.784-2.951 3.212-2.951 3.212-1.158 1.457-1.195 2.839-1.195 2.839-.299.896.075 2.391.075 2.391.784 2.651 2.428 3.586 2.428 3.586.485.56 1.419 1.644 1.419 1.644.785 1.27.598 2.129.598 2.129l2.316-.038c.037-.448-.075-1.382-.075-1.382-.114-1.755-2.542-3.847-2.542-3.847zM57.707 20.431s-.037-1.382-1.195-2.839c0 0-2.503-2.428-2.951-3.212 0 0-.288-.176-.405-1.286 0 0-.08-.843.106-1.59 0 0 .262-1.308 2.018-2.689 0 0 1.531-1.382 2.054-2.688 0 0 .374-.337.448-2.391h-2.428s.635 1.605-1.979 3.66c0 0-2.054 1.867-2.353 3.586 0 0-.523 1.232-.113 2.838 0 0 .523 1.793 1.457 2.914 0 0 2.877 2.278 2.914 3.548 0 0 .299.71.074 2.092 0 0-.561 1.718-1.867 2.54 0 0-2.428 2.092-2.54 3.847 0 0-.112.934-.075 1.382l2.316.038s-.188-.859.598-2.129c0 0 .934-1.084 1.419-1.644 0 0 1.644-.935 2.428-3.586-.001-.001.373-1.495.074-2.391z" clip-rule="evenodd"/></svg>