<svg xmlns="http://www.w3.org/2000/svg" xml:space="preserve" width="500" height="500" style="enable-background:new 0 0 500 500"><path d="M212.201 42.416h-83.178l-21.465 27.503 34.21 54.334h56.347l34.881-54.334z" style="fill-rule:evenodd;clip-rule:evenodd"/><path d="M205 49.444h-68.889l-17.778 22.779 28.334 45h46.666l28.89-45z" style="fill-rule:evenodd;clip-rule:evenodd;fill:#2ed1e2"/><path d="M113.889 70h113.889v9.444H113.889zm52.149 73.746c-75.355 0-136.443 61.088-136.443 136.442s61.088 136.443 136.443 136.443S302.48 355.542 302.48 280.188s-61.087-136.442-136.442-136.442zm0 225.131c-48.98 0-88.688-39.707-88.688-88.688s39.708-88.688 88.688-88.688c48.981 0 88.688 39.707 88.688 88.688s-39.707 88.688-88.688 88.688z" style="fill-rule:evenodd;clip-rule:evenodd"/><path d="M166.039 118.245c-89.438 0-161.944 72.505-161.944 161.943S76.6 442.132 166.039 442.132s161.942-72.506 161.942-161.944-72.503-161.943-161.942-161.943zm0 267.207c-58.134 0-105.264-47.128-105.264-105.264s47.129-105.264 105.264-105.264c58.136 0 105.264 47.128 105.264 105.264s-47.128 105.264-105.264 105.264z" style="fill-rule:evenodd;clip-rule:evenodd"/><path d="M166.039 129.245c-83.363 0-150.943 67.58-150.943 150.943s67.58 150.943 150.943 150.943c83.363 0 150.942-67.58 150.942-150.943s-67.58-150.943-150.942-150.943zm0 249.057c-54.186 0-98.114-43.927-98.114-98.113s43.928-98.113 98.114-98.113c54.187 0 98.114 43.927 98.114 98.113s-43.927 98.113-98.114 98.113z" style="fill-rule:evenodd;clip-rule:evenodd;fill:#fece85"/><path d="m472.833 119.625-71.541-42.493-34.531 13.736.835 66.186 51.224 29.575 54.988-28.758z" style="fill-rule:evenodd;clip-rule:evenodd"/><path d="m463.49 122.091-59.659-34.445-26.785 10.838 2.037 53.138 40.415 23.333 47.519-24.526z" style="fill-rule:evenodd;clip-rule:evenodd;fill:#2ed1e2"/><path d="M416.54 69.954h9.445v113.889h-9.445z" style="fill-rule:evenodd;clip-rule:evenodd" transform="rotate(-60.007 421.242 126.897)"/><path d="M381.85 185.576c-64.544-37.264-147.075-15.149-184.34 49.394-37.264 64.543-15.149 147.075 49.394 184.339 64.543 37.265 147.074 15.149 184.338-49.394 37.264-64.543 15.151-147.074-49.392-184.339zm8.49 160.724c-24.222 41.954-77.867 56.328-119.821 32.106-41.952-24.222-56.327-77.867-32.105-119.821 24.222-41.953 77.868-56.327 119.82-32.105 41.954 24.221 56.328 77.867 32.106 119.82z" style="fill-rule:evenodd;clip-rule:evenodd"/><path d="M395.098 162.628c-77.216-44.58-175.953-18.124-220.534 59.092s-18.124 175.953 59.092 220.534c77.216 44.58 175.951 18.123 220.531-59.093 44.582-77.216 18.126-175.952-59.089-220.533zm10.157 192.281c-28.978 50.191-93.156 67.388-143.347 38.41-50.189-28.977-67.388-93.156-38.41-143.347 28.978-50.191 93.158-67.387 143.348-38.41 50.19 28.978 67.386 93.157 38.409 143.347z" style="fill-rule:evenodd;clip-rule:evenodd"/><path d="M389.849 171.72c-72.195-41.682-164.512-16.945-206.193 55.249-41.681 72.195-16.945 164.511 55.25 206.192 72.194 41.682 164.51 16.945 206.19-55.249 41.681-72.195 16.947-164.511-55.247-206.192zm9.497 179.777c-27.094 46.928-87.099 63.006-134.025 35.912-46.927-27.093-63.006-87.098-35.912-134.025 27.093-46.927 87.1-63.005 134.025-35.912 46.926 27.093 63.004 87.098 35.912 134.025z" style="fill-rule:evenodd;clip-rule:evenodd;fill:#fece85"/><path d="m256.667 183.667-22-14L214 172.333l-21.333 23.334s42.411 15.136 55.646 53.021C262.719 289.924 270 219.667 270 219.667l-13.333-36z" style="fill-rule:evenodd;clip-rule:evenodd"/><path d="M223.111 130.333c-8.073-2.141-24.444 48.334-24.444 48.334s54.222 14.556 61.444 69c1.767 13.32 54.666-33.334 54.666-33.334s-18.333-64.556-91.666-84z" style="fill-rule:evenodd;clip-rule:evenodd"/><path d="M217.777 138.333c-8.072-2.141-24.444 47.471-24.444 47.471s60.987 19.732 68.209 74.177c1.768 13.32 44.569-34.98 44.569-34.98s-15-67.224-88.334-86.668z" style="fill-rule:evenodd;clip-rule:evenodd;fill:#fdb440"/><path d="M168 130.5c-29.5 4-2.913 49.62 8 51 43.5 5.5 76.206 46.366 78.5 52 28.5 70-16 112.5-16 112.5s35 43 41 35c33-44 35.753-62.629 36-90C317 125 168 130.5 168 130.5z" style="fill-rule:evenodd;clip-rule:evenodd;fill:#fdb440"/></svg>